HIERARCHY
ROOT hip
{
	OFFSET	0.00  0.00  0.00 
	CHANNELS 6 Xposition Yposition Zposition Xrotation Zrotation Yrotation
	JOINT abdomen
	{
		OFFSET	0.000000 1.799998 0.000000
		CHANNELS 3 Xrotation Zrotation Yrotation
		JOINT chest
		{
			OFFSET	0.000000 4.464001 -0.360000
			CHANNELS 3 Xrotation Zrotation Yrotation
			JOINT neck
			{
				OFFSET	0.000000 5.400002 -0.144000
				CHANNELS 3 Xrotation Zrotation Yrotation
				JOINT head
				{
					OFFSET	0.000000 1.655998 0.000000
					CHANNELS 3 Xrotation Zrotation Yrotation
					End Site
					{
						OFFSET 0.000000 1.656000 0.000000
					}
				}
			}
			JOINT lCollar
			{
				OFFSET	1.800000 3.528000 -0.432000
				CHANNELS 3 Yrotation Zrotation Xrotation
				JOINT lShldr
				{
					OFFSET	1.728000 0.000000 0.000000
					CHANNELS 3 Zrotation Yrotation Xrotation
					JOINT lForeArm
					{
						OFFSET	5.328000 0.000000 0.000000
						CHANNELS 3 Yrotation Zrotation Xrotation
						JOINT lHand
						{
							OFFSET	4.464000 0.000000 0.000000
							CHANNELS 3 Zrotation Yrotation Xrotation
							End Site
							{
								OFFSET 2.160000 0.000000 0.000000
							}
						}
					}
				}
			}
			JOINT rCollar
			{
				OFFSET	-1.872000 3.528000 -0.432000
				CHANNELS 3 Yrotation Zrotation Xrotation
				JOINT rShldr
				{
					OFFSET	-1.656000 0.000000 0.000000
					CHANNELS 3 Zrotation Yrotation Xrotation
					JOINT rForeArm
					{
						OFFSET	-5.400000 0.000000 0.000000
						CHANNELS 3 Yrotation Zrotation Xrotation
						JOINT rHand
						{
							OFFSET	-4.392000 0.000000 0.000000
							CHANNELS 3 Zrotation Yrotation Xrotation
							End Site
							{
								OFFSET -2.160000 0.000000 0.000000
							}
						}
					}
				}
			}
		}
	}
	JOINT lThigh
	{
		OFFSET	2.808000 -0.864002 0.720000
		CHANNELS 3 Xrotation Zrotation Yrotation
		JOINT lShin
		{
			OFFSET	-1.080000 -10.583999 0.000000
			CHANNELS 3 Xrotation Zrotation Yrotation
			JOINT lFoot
			{
				OFFSET	0.000000 -10.152000 -0.648000
				CHANNELS 3 Xrotation Yrotation Zrotation
				End Site
				{
					OFFSET 0.000000 -1.296000 2.448000
				}
			}
		}
	}
	JOINT rThigh
	{
		OFFSET	-2.808000 -0.864002 0.720000
		CHANNELS 3 Xrotation Zrotation Yrotation
		JOINT rShin
		{
			OFFSET	1.080000 -10.583999 0.000000
			CHANNELS 3 Xrotation Zrotation Yrotation
			JOINT rFoot
			{
				OFFSET	0.000000 -10.152000 -0.648000
				CHANNELS 3 Xrotation Yrotation Zrotation
				End Site
				{
					OFFSET 0.000000 -1.296000 2.448000
				}
			}
		}
	}
}
MOTION
Frames:     8
Frame Time: 0.033333
0.000000 23.151886 0.000000 0.000000 0.000000 0.000000 -0.727307 -3.130227 -1.753559 -1.248016 1.233705 -1.846723 -0.120080 -0.079659 -0.065810 0.000000 0.000000 0.000000 0.000000 0.000000 0.000000 0.000000 0.000000 0.000000 0.000000 0.000000 0.000000 0.000000 0.000000 0.000000 24.596727 -29.811295 5.135514 -18.919731 9.860353 -59.592567 34.975952 0.178286 9.567880 2.064484 17.573318 6.920153 0.000000 0.000000 0.000000 0.009766 0.000000 0.000000 -0.097656 0.000000 0.000000 0.000000 -0.068359 0.000000 0.021638 0.043683 -0.002774 0.476551 0.127981 0.067070 
0.000000 23.151886 0.000000 0.000000 0.000000 0.000000 -0.662969 -3.214782 -1.589152 -1.157170 0.566182 -1.672707 -0.118864 -0.078852 -0.065144 0.000000 0.000000 0.000000 0.000000 0.000000 0.000000 0.000000 0.000000 0.000000 0.000000 0.000000 0.000000 0.000000 0.000000 0.000000 21.654654 -29.278883 3.657641 -18.329544 9.759892 -59.449921 30.976316 0.870885 9.761311 2.485248 12.747923 6.657700 0.000000 0.000000 0.000000 0.009766 0.000000 0.000000 -0.097656 0.000000 0.000000 -0.009715 -0.068359 -0.000991 0.028032 0.040519 0.007210 0.486731 0.114389 0.093010 
0.000000 23.151886 0.000000 0.000000 0.000000 0.000000 -0.584078 -3.313487 -1.388152 -1.046229 -0.252636 -1.459941 -0.117318 -0.077827 -0.064296 0.000000 0.000000 0.000000 0.000000 0.000000 0.000000 0.000000 0.000000 0.000000 0.000000 0.000000 0.000000 0.000000 0.000000 0.000000 18.067951 -28.570498 1.856237 -17.680210 9.646054 -59.296425 25.977173 1.774875 10.026896 3.065493 6.807554 6.334408 0.000000 0.000000 0.000000 0.009766 0.000000 0.000000 -0.097656 0.000000 0.000000 -0.009715 -0.068359 -0.000991 0.028036 0.039896 -0.002536 0.484327 0.125871 0.087999 
0.000000 23.151886 0.000000 0.000000 0.000000 0.000000 -0.507594 -3.406501 -1.193610 -0.938920 -1.046612 -1.254000 -0.115495 -0.076617 -0.063297 0.000000 0.000000 0.000000 0.000000 0.000000 0.000000 0.000000 0.000000 0.000000 0.000000 0.000000 0.000000 0.000000 0.000000 0.000000 14.601994 -27.853872 0.115629 -17.090698 9.540724 -59.159138 21.079693 2.680698 10.299648 3.662607 1.035953 6.020199 0.000000 0.000000 0.000000 0.009766 0.000000 0.000000 -0.097656 0.000000 0.000000 0.000000 -0.068359 0.000000 0.021638 0.043683 -0.002774 0.476563 0.118844 0.084333 
0.000000 23.151886 0.000000 0.000000 0.000000 0.000000 -0.450481 -3.473986 -1.048575 -0.858968 -1.639611 -1.100461 -0.113445 -0.075257 -0.062174 0.000000 0.000000 0.000000 0.000000 0.000000 0.000000 0.000000 0.000000 0.000000 0.000000 0.000000 0.000000 0.000000 0.000000 0.000000 12.022152 -27.296730 -1.179859 -16.679974 9.465778 -59.065109 17.385046 3.378793 10.514580 4.133980 -3.283145 5.784990 0.000000 0.000000 0.000000 0.009766 0.000000 0.000000 -0.097656 0.000000 0.000000 0.000000 -0.068359 0.000000 0.021638 0.043683 -0.002774 0.476566 0.118845 0.084333 
0.000000 23.151886 0.000000 0.000000 0.000000 0.000000 -0.429700 -3.496100 -0.996100 -0.830100 -1.855500 -1.044900 -0.111222 -0.073782 -0.060955 0.000000 0.000000 0.000000 0.000000 0.000000 0.000000 0.000000 0.000000 0.000000 0.000000 0.000000 0.000000 0.000000 0.000000 0.000000 11.093800 -27.066799 -1.645900 -16.566999 9.443100 -59.041401 15.994400 3.659600 10.606700 4.337000 -4.866000 5.698700 0.000000 0.000000 0.000000 0.009766 0.000000 0.000000 -0.097656 0.000000 0.000000 0.000000 -0.068359 0.000000 0.021638 0.043683 -0.002774 0.476566 0.118845 0.084333 
0.000000 23.151886 0.000000 0.000000 0.000000 0.000000 -0.456390 -3.460017 -1.064431 -0.867878 -1.578597 -1.117223 -0.108877 -0.072227 -0.059670 0.000000 0.000000 0.000000 0.000000 0.000000 0.000000 0.000000 0.000000 0.000000 0.000000 0.000000 0.000000 0.000000 0.000000 0.000000 12.318714 -27.276478 -1.030544 -16.826893 9.486677 -59.104908 17.634737 3.383284 10.532182 4.175410 -2.868631 5.807305 0.000000 0.000000 0.000000 0.009766 0.000000 0.000000 -0.097656 0.000000 0.000000 0.000000 -0.068359 0.000000 0.021638 0.043683 -0.002774 0.476566 0.118845 0.084333 
0.000000 23.151886 0.000000 0.000000 0.000000 0.000000 -0.518398 -3.380960 -1.222603 -0.955212 -0.935043 -1.284650 -0.106463 -0.070625 -0.058347 0.000000 0.000000 0.000000 0.000000 0.000000 0.000000 0.000000 0.000000 0.000000 0.000000 0.000000 0.000000 0.000000 0.000000 0.000000 15.144279 -27.816841 0.388661 -17.359358 9.578940 -59.231918 21.536276 2.688910 10.331838 3.738367 1.793921 6.061006 0.000000 0.000000 0.000000 0.009766 0.000000 0.000000 -0.097656 0.000000 0.000000 0.000000 -0.068359 0.000000 0.021638 0.043683 -0.002774 0.476566 0.118845 0.084333 
